<svg xmlns="http://www.w3.org/2000/svg" width="151mm" height="130mm" viewBox="0 0 428.0315 368.5039"><defs><style>.a{fill:#fff;}</style></defs><path class="a" d="M2.9293,366.5445v-.0807c1.8924-2.0135,2.59-3.6993,3.8655-7.0709l8.59-23.2688H17.071l8.714,23.6392c1.3985,3.7372,2.3031,5.1761,3.7823,6.7v.0807H21.5111v-.0807c.7812-1.154.9023-3.6186-.29-6.9095l-1.4388-3.9462H9.8767L9.0955,357.75c-1.7665,4.7678-.7384,7.3986.1639,8.714v.0807Zm16.2383-12.5367-4.357-11.8386-4.3569,11.8386Z"></path><path class="a" d="M38.8178,365.1863l6.9071-.2849c3.2054-.1234,5.7127-3.495,7.8924-6.99l.698.29-1.89,8.3435H32.7347v-.0807c1.3985-2.55,1.7262-3.989,1.7262-7.3606V343.6461a12.0309,12.0309,0,0,0-1.6858-7.1089v-.0807h7.7285v.0807c-1.3961,2.4646-1.6858,3.8228-1.6858,7.1089Z"></path><path class="a" d="M84.94,343.8123l-.698.2042c-2.467-5.0527-5.1406-6.5343-8.099-6.5343-3.165,0-4.81,1.6051-4.81,4.15,0,3.7848,3.5355,5.3471,7.2775,7.1516,4.07,1.9328,8.3031,4.1124,8.3031,9.7017,0,6.1258-4.9339,8.6759-10.687,8.6759a25.4152,25.4152,0,0,1-8.3863-1.52l-.8215-7.8116.6981-.29c2.7542,5.594,5.7958,8.0158,9.7824,8.0158,3.9889,0,5.7554-2.4218,5.7554-5.2995,0-4.0317-3.3288-5.6748-6.8643-7.4413-4.0293-2.0135-8.3459-3.9889-8.3459-9.2078,0-5.5513,4.44-7.7689,9.4548-7.7689a20.5086,20.5086,0,0,1,6.62,1.1492Z"></path><path class="a" d="M88.7223,366.5445v-.0807c1.8924-2.0135,2.59-3.6993,3.8655-7.0709l8.59-23.2688h1.6858l8.7139,23.6392c1.3985,3.7372,2.3032,5.1761,3.7824,6.7v.0807h-8.0562v-.0807c.7788-1.154.9022-3.6186-.29-6.9095l-1.4389-3.9462H95.67l-.7812,2.1417c-1.7665,4.7678-.7384,7.3986.1638,8.714v.0807Zm16.2383-12.5367-4.357-11.8386-4.3593,11.8386Z"></path><path class="a" d="M118.5253,366.4638a12.1434,12.1434,0,0,0,1.6858-7.1136V343.6461a12.0478,12.0478,0,0,0-1.6858-7.1089v-.0807h7.6882v.0807a12.0309,12.0309,0,0,0-1.6858,7.1089v6.577h14.84v-6.577a12.1279,12.1279,0,0,0-1.6858-7.1089v-.0807h7.6858v.0807a12.0485,12.0485,0,0,0-1.6858,7.1089V359.35a12.064,12.064,0,0,0,1.6858,7.1136v.0807h-7.6858v-.0807a12.1434,12.1434,0,0,0,1.6858-7.1136v-7.4793h-14.84V359.35a12.0463,12.0463,0,0,0,1.6858,7.1136v.0807h-7.6882Z"></path><path class="a" d="M156.8785,336.4565v.0807c-.8619,1.2727-1.1492,3.5758-.1639,6.9047l5.2213,16.9767,6.4131-16.8532-.1234-.3277c-1.2751-3.742-2.0562-5.1809-3.5355-6.7005v-.0807h8.3032v.0807c-.8215,1.192-1.2323,3.5758-.1235,6.9047l5.6724,16.6918,4.7274-15.006c1.4792-4.687.8215-7.1943-.1639-8.5905v-.0807h6.247v.0807c-1.89,2.0135-2.835,3.742-3.9866,7.4413l-7.2347,22.8936h-1.6027l-7.3581-20.9229-8.0159,20.9229H159.552l-7.4413-23.6344c-1.1919-3.742-2.0965-5.1809-3.5354-6.7005v-.0807Z"></path><path class="a" d="M186.5984,366.5445v-.0807c1.8924-2.0135,2.59-3.6993,3.8655-7.0709l8.59-23.2688H200.74l8.714,23.6392c1.3985,3.7372,2.3031,5.1761,3.7823,6.7v.0807H205.18v-.0807c.7788-1.154.9023-3.6186-.29-6.9095l-1.4388-3.9462h-9.9059l-.7812,2.1417c-1.7665,4.7678-.7384,7.3986.1639,8.714v.0807Zm16.2383-12.5367-4.357-11.8386L194.12,354.0078Z"></path><path class="a" d="M243.6164,343.8123l-.698.2042c-2.467-5.0527-5.1381-6.5343-8.099-6.5343-3.165,0-4.81,1.6051-4.81,4.15,0,3.7848,3.5354,5.3471,7.2774,7.1516,4.07,1.9328,8.3031,4.1124,8.3031,9.7017,0,6.1258-4.9339,8.6759-10.687,8.6759a25.4146,25.4146,0,0,1-8.3862-1.52l-.8216-7.8116.6981-.29c2.7543,5.594,5.7958,8.0158,9.7824,8.0158,3.9889,0,5.7554-2.4218,5.7554-5.2995,0-4.0317-3.3288-5.6748-6.8642-7.4413-4.0293-2.0135-8.3459-3.9889-8.3459-9.2078,0-5.5513,4.44-7.7689,9.4547-7.7689a20.5086,20.5086,0,0,1,6.62,1.1492Z"></path><path class="a" d="M275.39,364.1606a22.9122,22.9122,0,0,1-11.2616,3.0012c-9.4951,0-15.4975-6.8667-15.4975-15.6613,0-8.7567,6.7005-15.6613,16.319-15.6613a28.9428,28.9428,0,0,1,10.2763,1.9707l.945,7.4413-.6981.2042c-3.6992-5.67-6.33-7.9732-11.0574-7.9732-7.6858,0-10.8936,5.96-10.8936,14.0183,0,8.0538,3.2885,14.0183,10.6063,14.0183,5.7555,0,8.797-3.9462,11.4682-9.7017l.6981.2042Z"></path><path class="a" d="M281.1077,366.4638a12.1434,12.1434,0,0,0,1.6858-7.1136V343.6461a12.0478,12.0478,0,0,0-1.6858-7.1089v-.0807h7.6882v.0807a12.0309,12.0309,0,0,0-1.6858,7.1089v6.577h14.84v-6.577a12.1286,12.1286,0,0,0-1.6858-7.1089v-.0807H307.95v.0807a12.0478,12.0478,0,0,0-1.6858,7.1089V359.35a12.0633,12.0633,0,0,0,1.6858,7.1136v.0807h-7.6858v-.0807A12.1442,12.1442,0,0,0,301.95,359.35v-7.4793H287.11V359.35a12.0463,12.0463,0,0,0,1.6858,7.1136v.0807h-7.6882Z"></path><path class="a" d="M311.7726,351.5385c0-8.7519,7.522-15.6993,15.3741-15.6993a15.664,15.664,0,1,1-15.3741,15.6993Zm25.8972,0c0-7.93-3.9865-14.0563-10.5231-14.0563s-10.4829,6.1639-10.4829,14.0563,3.9462,13.98,10.4829,13.98S337.67,359.4736,337.67,351.5385Z"></path><path class="a" d="M345.6453,351.5385c0-8.7519,7.522-15.6993,15.3741-15.6993a15.664,15.664,0,1,1-15.3741,15.6993Zm25.8973,0c0-7.93-3.9866-14.0563-10.5232-14.0563s-10.4829,6.1639-10.4829,14.0563,3.9462,13.98,10.4829,13.98S371.5426,359.4736,371.5426,351.5385Z"></path><path class="a" d="M386.3823,365.1863l6.9071-.2849c3.2054-.1234,5.7127-3.495,7.8924-6.99l.698.29-1.89,8.3435H380.2992v-.0807c1.3985-2.55,1.7262-3.989,1.7262-7.3606V343.6461a12.0309,12.0309,0,0,0-1.6858-7.1089v-.0807h7.7286v.0807c-1.3962,2.4646-1.6859,3.8228-1.6859,7.1089Z"></path><path class="a" d="M422.5582,343.8123l-.6981.2042c-2.4669-5.0527-5.1381-6.5343-8.0989-6.5343-3.1651,0-4.81,1.6051-4.81,4.15,0,3.7848,3.5354,5.3471,7.2774,7.1516,4.07,1.9328,8.3032,4.1124,8.3032,9.7017,0,6.1258-4.9339,8.6759-10.687,8.6759a25.4152,25.4152,0,0,1-8.3863-1.52l-.8215-7.8116.698-.29c2.7543,5.594,5.7959,8.0158,9.7824,8.0158,3.989,0,5.7555-2.4218,5.7555-5.2995,0-4.0317-3.3289-5.6748-6.8643-7.4413-4.0293-2.0135-8.3459-3.9889-8.3459-9.2078,0-5.5513,4.44-7.7689,9.4547-7.7689a20.5092,20.5092,0,0,1,6.62,1.1492Z"></path><path class="a" d="M1.4173,265.219c.611-.4675.9736-1.1877,1.7567-1.5a2.7132,2.7132,0,0,1,3.5663.8055c1.3188,1.5348,2.9795,1.5282,4.399-.2027a2.2711,2.2711,0,0,1,2.3185-.8822,6.4352,6.4352,0,0,1,4.8351,2.8342,3.0624,3.0624,0,0,1-.4834,4.398q-1.5435,1.491-3.9114-.1981c-2.1732-1.5474-2.18-1.5542-4.1289.34a2.4549,2.4549,0,0,1-1.7613.6468c-3.2729.0889-5.3734-1.5364-6.5906-4.4568Z"></path><path class="a" d="M179.0542,274.6581a82.5042,82.5042,0,0,1-.9854,9.5222,28.1973,28.1973,0,0,1-.7743,3.4606c-.1755.5946-.53,1.3941-1.2392,1.2924-.6828-.0978-.8313-.956-.8706-1.57a16.4425,16.4425,0,0,1,.0111-3.7051c.5785-3.4874.3792-7.0121.647-10.5133.3134-4.0948.32-8.2128.4573-12.3207a6.2585,6.2585,0,0,1,1.11-3.7846c.2713-.3514.5557-.7553,1.0719-.6972.58.0654.8213.5407.9608,1.0214,1.2676,4.3638,2.4976,8.7388,3.3819,13.1986a61.9894,61.9894,0,0,1,1.5146,10.1009c.2173,6.8776-2.1318,12.8962-6.0647,18.3937-3.8338,5.3584-9.0837,8.9381-15.04,11.5584-4.5878,2.0182-9.3252.1665-11.843-4.6984a2.65,2.65,0,0,0-2.9308-1.7592c-2.39.15-4.3474-1.3991-5.235-4.0662-.4609-1.3852-1.17-1.4082-2.3611-1.1445-1.4587.323-2.3509,1.4351-3.513,2.1638a83.0923,83.0923,0,0,1-19.4692,8.8236,91.2391,91.2391,0,0,1-19.4036,3.7412,106.4262,106.4262,0,0,1-15.2163.2207c-6.52-.3656-12.77-1.89-18.1978-5.8013-5.1961-3.7443-7.7984-8.9038-8.577-15.16a22.2637,22.2637,0,0,1,1.3454-11.645c-2.4071,1.6961-4.8161,3.3653-6.4307,5.8061-.8823,1.334-.48,2.9793-.2139,4.4974.1879,1.0721.4275,2.1354.6022,3.2093a3.998,3.998,0,0,1-.2,2.0495c-.1677.4557-.3881.7823-.9328.8061-.611.0266-.7167-.3832-.8364-.8377-.2646-1.0033-.5664-1.9969-.8327-3a4.6,4.6,0,0,0-1.0295-1.7818,1.16,1.16,0,0,0-1.81-.1621,9.2379,9.2379,0,0,1-2.3227,1.5842c-3.539,1.1528-4.7918,3.9325-5.97,7.1356a19.6075,19.6075,0,0,1-9.6547,11.2349c-2.9533,1.4818-6.1858,1.8084-9.3976,2.0531A36.4421,36.4421,0,0,1,5.4088,312.237a3.4449,3.4449,0,0,1-1.574-.7221c.0685-.4965.4-.3546.68-.3328,7.5022.5824,14.8092-.1473,21.6608-3.4726a19.6991,19.6991,0,0,0,9.3259-9.0714c.42-.8433.6863-1.5135-.7226-1.4177a5.8257,5.8257,0,0,1-1.0313-.1441c-5.8253-.6886-6.353-4.9025-4.6578-8.86a11.4791,11.4791,0,0,1,3.6181-4.4691,3.1581,3.1581,0,0,1,4.5992.596,8.6308,8.6308,0,0,1,1.6634,3.1284,1.1542,1.1542,0,0,0,1.4113.954,6.1981,6.1981,0,0,0,4.685-2.543,2.3765,2.3765,0,0,0,.1571-2.139,26.4622,26.4622,0,0,1-.378-10.0217,12.5048,12.5048,0,0,1,1.4073-4.1951,5.6664,5.6664,0,0,1,5.4344-3.1925,41.0637,41.0637,0,0,1,10.2776,1.546,9.71,9.71,0,0,0,6.8421-.4581c1.15-.5153,2.224-.653,3.1768.26.9346.8958.71,1.9823.273,3.0365a5.2037,5.2037,0,0,1-2.2962,2.6089c-2.9167,1.6943-5.7585,3.5156-8.6469,5.2588a4.1628,4.1628,0,0,0-1.9865,2.9654c-1.246,6.2376-.7627,12.1146,3.4468,17.2672,3.5829,4.3852,8.2741,6.7305,13.7914,7.8488a74.5122,74.5122,0,0,0,16.7853,1.1143c3.3787-.0848,6.7607.1878,10.14-.2549a69.5315,69.5315,0,0,0,16.2135-4.3306,119.6439,119.6439,0,0,0,21.8017-11.2191c1.85-1.2014,3.5775-.6032,4.4767,1.6166a10.2177,10.2177,0,0,0,1.36,2.7882c.5.6106,1.0221,1.4535,1.8993,1.16.775-.26.749-1.1927.7662-1.9274a37.68,37.68,0,0,1,1.4846-10.0958c1.4959-4.9346,4.0135-9.011,9.6651-9.948,4.9622-.8227,9.4078.589,9.8745,6.6817.2076,2.7095-1.0424,4.9958-2.4781,7.1565-2.8873,4.3456-6.9577,7.4142-11.3,10.1725-.4189.2662-.8638.4969-1.261.7919a2.29,2.29,0,0,0,.3492,4.0794c2.192,1.0919,4.4472.8063,6.6906.1909,4.6352-1.2714,8.1869-4.147,11.3056-7.6432a58.107,58.107,0,0,0,4.6112-6.3667,11.7706,11.7706,0,0,0,1.8215-6.038A23.6633,23.6633,0,0,0,179.0542,274.6581ZM153.512,293.2725c-.01.1977-.0134.3959-.0308.593-.1561,1.7677-.0465,1.8472,1.5843,1.1153a29.078,29.078,0,0,0,11.2776-9.4266c.9575-1.27.7687-1.9154-.7985-2.458a8.3447,8.3447,0,0,0-7.6464,1.173C154.7145,286.4017,153.918,289.76,153.512,293.2725ZM47.7748,278.2289a9.1391,9.1391,0,0,0,.4335,2.1338c.3458,1.5119,1.0689,1.7319,2.28.6976,1.58-1.3484,3.1678-2.6911,4.6809-4.1116.7643-.7178,2.2477-1.2874,1.9557-2.3839-.3739-1.4045-2.0653-1.44-3.2909-1.5342C50.311,272.759,47.9824,274.2252,47.7748,278.2289Z"></path><path class="a" d="M223.68,268.1955c2.9118-.7476,5.4967,1.0857,8.2908,1.9961,4.6046,1.5,9.25,2.6671,14.1543,2.44a16.6685,16.6685,0,0,0,6.4359-1.6935,42.01,42.01,0,0,1,6.4933-2.5821c.6328-.18,1.39-.39,1.7429.317.3895.7811-.37,1.1206-.909,1.4546a110.406,110.406,0,0,1-9.9915,5.6113c-3.4636,1.6759-7.1949,1.7161-10.9578,1.4157-3.5117-.2805-6.7527-1.5521-10.0842-2.5238-3.9349-1.1479-7.9205-1.8982-12.0335-.7905-4.7706,1.285-7.149,4.6688-8.3643,9.1621-1.0445,3.8628-.3695,7.5756,1.0088,11.1867a24.769,24.769,0,0,0,6.1731,9.5162,11.6656,11.6656,0,0,0,14.6824,1.148,7.3935,7.3935,0,0,0,1.6891-10.1141,4.7349,4.7349,0,0,0-6.1622-1.1963,2.0115,2.0115,0,0,1-3.2435-.8886,3.5262,3.5262,0,0,1,.4073-3.54c4.0594-5.5524,9.8707-4.0738,12.6224.6578a14.9175,14.9175,0,0,0,7.1576,6.2632,68.1986,68.1986,0,0,0,20.678,5.2333,82.0392,82.0392,0,0,0,20.8171-.7949,115.9888,115.9888,0,0,0,35.599-11.7923A166.2625,166.2625,0,0,0,350.5068,267.93c1.8868-1.5995,3.536-3.4961,5.73-4.708,1.0435-.5764,2.1349-1.48,3.4205-.5072.9774.7395,1.16,2.3583.5234,3.9994a3.2407,3.2407,0,0,1-3.2845,2.3327,2.7486,2.7486,0,0,0-2.2622,1.13,126.2507,126.2507,0,0,1-18.0978,15.424,111.7441,111.7441,0,0,1-31.5228,15.8025,135.3047,135.3047,0,0,1-17.6705,4.6914,95.7628,95.7628,0,0,1-12.8782,1.4069,77.46,77.46,0,0,1-22.0084-2.2124c-1.2954-.3359-2.5558-.8092-3.8563-1.1206-1.9284-.4618-3.2086.2838-3.5018,2.1634a9.93,9.93,0,0,0,.0947,4.4182c.29.9749.6968,1.7706,1.8648,1.7944.7036.0144.768.4551.7764,1.001a3.2637,3.2637,0,0,1-2.7855,3.3249c-1.2492.1029-2.3775-1.014-2.7166-2.65a18.1657,18.1657,0,0,1,.5616-8.9495c.98-3.2818-1.1219-4.63-3.8929-5.0708-1.2264-.1951-2.0037.615-2.5336,1.6913a25.1336,25.1336,0,0,1-5.9042,7.7549c-4.84,4.3076-11.2627,4.4635-16.5081.5006-5.7556-4.3482-8.3853-10.4085-9.6535-17.179a25.2854,25.2854,0,0,1,1.0659-13.7333c2.5452-6.8286,8.4972-10.4973,15.4006-11.03C221.709,268.14,222.56,268.1955,223.68,268.1955Z"></path><path class="a" d="M348.9354,313.476q-.5445.0393-1.0889.0788l-.0018-.6148a58.3422,58.3422,0,0,0,13.8381-4.4974,28.3682,28.3682,0,0,0,14.5836-16.4691c2.8921-8.0475,1.9341-15.6188-2.4373-22.9386,0,1.4221-.0915,2.8514.0172,4.2653.3264,4.2421.4516,8.5,1.0219,12.7239a13.8874,13.8874,0,0,1,.3716,3.0892,3.206,3.206,0,0,1-.2372,1.299,1.3083,1.3083,0,0,1-1.4341.8059c-.7232-.0913-.9366-.4875-.9914-1.1982-.3148-4.0948-.7525-8.1812-1.0237-12.2786-.3992-6.0248-.6812-12.0571-1.0416-18.0845a17.6042,17.6042,0,0,1,.3406-3.6886c.1211-.8057.4731-1.6946,1.2978-1.8387.8845-.1543,1.3391.7412,1.6917,1.4259a47.6393,47.6393,0,0,1,2.5268,6.3312c2.4414,7.0713,4.91,14.1951,4.5627,21.7851a38.01,38.01,0,0,1-9.5124,24.0951c-.2442.2766-.7879.4909-.5224.9358.2188.3669.7343.187,1.1067.1529,9.5771-.88,16.9518-5.21,21.6468-13.7229,1.1944-2.1656,2.5368-4.2481,3.6041-6.4873.3574-.75.9278-1.5734,1.853-1.5014,1.0016.0779,1.2288,1.0361,1.382,1.8826a37.7677,37.7677,0,0,0,1.3367,6.5222,7.8474,7.8474,0,0,0,.935,2.0048c1.0809,1.4642,2.2124,1.6647,3.7126.611a25.9481,25.9481,0,0,0,5.0412-4.6167c1.2132-1.4561,1.1073-1.9178-.42-3.01-1.3388-.957-1.6594-2.9263-.7913-4.8611.4907-1.0941,1.6825-1.4942,3.3764-.9959a8.4443,8.4443,0,0,0,8.2646-1.4761,2.0393,2.0393,0,0,1,.7771-.4227c1.1776-.283,2.4954-1.041,3.4875.1325.973,1.1507-.0451,2.2444-.5676,3.2575a5.5182,5.5182,0,0,1-4.7,3.3973,1.2715,1.2715,0,0,0-.8636.5134c-3.3487,3.5192-6.8181,6.93-9.5807,10.9608a10.6987,10.6987,0,0,1-3.2661,3.0111,5.1818,5.1818,0,0,1-7.9526-2.8446c-.4073-1.2142-.6624-2.4784-1.01-3.7134-.11-.39.1748-1.0413-.4352-1.11-.59-.0667-.7857.5676-.9614,1.0006a23.0776,23.0776,0,0,1-3.8939,6.12,28.0339,28.0339,0,0,1-10,8.0492,14.6606,14.6606,0,0,1-6.2139,1.3048q-10.233-.14-20.4647.0884a2.6447,2.6447,0,0,0-2.2314.1739q-1.8816.0482-3.7634.0961C349.811,313.1109,349.3038,312.9254,348.9354,313.476Z"></path><path class="a" d="M194.1637,275.5056a6.2737,6.2737,0,0,0-1.493,4.2479c-.0116,4.4566.0464,8.9117.31,13.3613a4.4662,4.4662,0,0,1-.3747,2.1674,1.3425,1.3425,0,0,1-1.5959.8061c-.7045-.1483-1.2286-.4319-1.2969-1.3449-.4609-6.1741-1.0382-12.375-.2091-18.5256.6938-5.148.7559-10.3543,1.6761-15.4712a2.2542,2.2542,0,0,1,.4827-1.214c.4368-.4763.8385-.9932,1.606-.9076.8175.0909,1.0425.75,1.2048,1.3467.6488,2.3811,1.25,4.7754,1.8369,7.1726a107.7577,107.7577,0,0,1,3.1344,15.8322c.72,7.9693-.2133,15.6742-5.2223,22.3041a20.7311,20.7311,0,0,1-15.0144,8.3651,61.8659,61.8659,0,0,0-11.4609,1.8085,11.4677,11.4677,0,0,1-6.3354-.1447c-.4513-.123-1.0789-.3238-1.1-.8707-.0182-.4743.592-.6076.9692-.8241,1.8542-1.0643,3.9595-.8944,5.9626-1.0615a40.0226,40.0226,0,0,0,19.1674-6.2822,21.0622,21.0622,0,0,0,9.6288-15.6484C196.6779,285.5082,195.6722,280.6094,194.1637,275.5056Z"></path><path class="a" d="M315.2248,312.9791a3.9507,3.9507,0,0,1,3.11-1.2787,35.9433,35.9433,0,0,0,13.1762-2.0026,41.2052,41.2052,0,0,0,16.3635-11.0042,65.2443,65.2443,0,0,0,9.2753-13.748c.8975-1.72,2.5006-2.8988,3.3163-4.7058.3516-.7785,1.568-.971,2.5344-.9674a1.0154,1.0154,0,0,1,.9378.6264c.5281,1.1527.2179,4.391-.8207,4.8689-3.2863,1.5122-3.83,4.9139-5.5111,7.4974-3.405,5.2321-6.5576,10.6525-11.5134,14.6469a32.9085,32.9085,0,0,1-19.3817,7.4565,34.9958,34.9958,0,0,1-10.4741-.9414A6.898,6.898,0,0,1,315.2248,312.9791Z"></path><path class="a" d="M88.7233,278.6164a1.3862,1.3862,0,0,1-1.3767-.5284c-.3258-.5037.1081-.8321.4349-1.1205,4.9624-4.38,10.4831-7.526,17.2056-8.51,5.0031-.7321,9.9319-1.9614,14.8979-2.9489,10.169-2.0225,20.3139-4.168,30.5412-5.8935,1.2506-.211,1.2934.3226.9246,1.1827a5.3926,5.3926,0,0,1-4.0538,3.4c-8.1522,1.4915-16.33,2.8442-24.4792,4.3536-7.7593,1.4373-15.4812,3.0771-23.1311,5.01a23.7622,23.7622,0,0,0-9.4012,4.3239A6.359,6.359,0,0,1,88.7233,278.6164Z"></path><path class="a" d="M4.7032,294.0936c-.1577-5.1292,2.3447-8.7628,6.1993-11.5968a4.7921,4.7921,0,0,1,5.4725-.1521,8.6308,8.6308,0,0,1,4.1,10.5366,12.8392,12.8392,0,0,1-6.4877,7.3849C9.9119,302.4169,3.8653,299.0044,4.7032,294.0936Zm8.9641.9494c1.09-.1683,2.0845-.2761,2.6031-1.3212a3.1124,3.1124,0,0,0-.01-3.35c-1.6639-2.5357-4.2892-2.82-7.195-.74a2.0812,2.0812,0,0,0-.5019,3.3043C9.8775,294.6692,11.9146,294.612,13.6673,295.043Z"></path><path class="a" d="M115.8874,317.5308a14.5737,14.5737,0,0,1-1.7877-.0141,1.171,1.171,0,0,1-1.1293-1.4409c.1084-.8441.6435-.9021,1.4-.8361a14.33,14.33,0,0,0,9.3152-2.28,13.8756,13.8756,0,0,1,10.3242-2.2712,1.84,1.84,0,0,0,2.0242-.911,10.2618,10.2618,0,0,1,2.4026-2.6112c1.341-1.0205,3.487-1.2679,4.4534-.5034a4,4,0,0,1,.655,4.6392c-1.0793,2.0357-2.5584,3.6143-4.9978,4.01a7.6009,7.6009,0,0,0-3.3707,1.4508c-1.4217,1.0524-2.4776.6508-2.9365-1.0119a2.1867,2.1867,0,0,0-2.6769-1.7513,6.46,6.46,0,0,0-2.6787.8471C123.5225,316.9924,119.72,317.32,115.8874,317.5308Z"></path><path class="a" d="M295.5883,309.7016A23.1907,23.1907,0,0,0,310.16,306.01a31.0571,31.0571,0,0,1,7.0535-3.805c.4247-.1463.9072-.4715,1.2822-.248,1.3865.8266,2.2091.0365,3.0614-.8829a1.6222,1.6222,0,0,1,1.31-.6314,3.2707,3.2707,0,0,0,3.434-1.19c.2284-.303.5365-.1023.79.0711a1.4074,1.4074,0,0,1,.622,1.56,4.8663,4.8663,0,0,1-2.4162,3.0591,6.9907,6.9907,0,0,1-1.6708.5994c-1.1665.3268-2.3779.3754-3.4276,1.21a2.6679,2.6679,0,0,1-2.8522.1458,2.1323,2.1323,0,0,0-2.6062.3737c-3.5942,3.2709-8.091,4.4786-12.65,5.5375a31.1373,31.1373,0,0,1-6.6532.7051c-1.0457.0142-1.9345-.3485-1.9046-1.3873C293.5633,310.0426,294.52,309.6363,295.5883,309.7016Z"></path><path class="a" d="M299.9686,265.2248a4.6214,4.6214,0,0,0-4.4244,1.4161,5.3005,5.3005,0,0,1-1.1894.8836c-.3738.2356-.7946.5027-1.2313.1555a1.175,1.175,0,0,1-.3048-1.2276,6.5824,6.5824,0,0,1,5.4959-4.7684,69.8874,69.8874,0,0,1,8.3447.0642c2.9358.2146,3.9371,2.7568,2.1924,5.12-3.8062,5.1561-9.1152,7.5736-15.3216,8.3747-.5443.07-1.0226-.0106-1.1843-.6038a.9639.9639,0,0,1,.6822-1.1739c1.1876-.4909,2.4-.923,3.6009-1.3811a36.0867,36.0867,0,0,0,7.4724-3.62,5.488,5.488,0,0,0,.7224-.5183c.4583-.4329,1.123-.8227.9192-1.5682-.2047-.7491-.957-.7523-1.5886-.8666A22.809,22.809,0,0,0,299.9686,265.2248Z"></path><path class="a" d="M287.9286,285.7605a15.5053,15.5053,0,0,1,.4387-2.5794c.126-.9588-.0683-1.3575-1.0845-.98-.3026.1126-.633.4416-.9392.0768a1.2,1.2,0,0,1-.1055-1.1353c.37-1.3293,3.403-2.9279,4.6892-2.4938a1.5241,1.5241,0,0,1,1.0136,1.3426,7.3063,7.3063,0,0,1-.1657,2.9339,6.05,6.05,0,0,0-.3576,1.8692c.0432.5227-.0212,1.4407.6686,1.4809.7473.0437.47-.8339.5692-1.3062a8.1273,8.1273,0,0,1,3.2827-5.1076,1.9514,1.9514,0,0,1,2.3551-.2314c.7094.572.2513,1.4577-.0887,2.181-.1255.2668-.21.6116-.4258.7677a3.6819,3.6819,0,0,0-1.3315,3.7132c.3354,3.0343-1.67,4.5441-3.792,5.991a1.4774,1.4774,0,0,1-2.0089-.4263A8.8861,8.8861,0,0,1,287.9286,285.7605Z"></path><path class="a" d="M82.5338,283.4721c-.0268,1.2844-.1071,2.5706-.0687,3.8532.0821,2.75,2.0447,4.1843,4.7408,3.5191,1.5446-.3809,1.7362-.174,1.3471,1.3476a4.2489,4.2489,0,0,1-3.5334,3.2073c-1.8752.396-3.2585-.613-4.35-1.9871-1.4772-1.8588-1.6221-4.0576-1.5234-6.33.14-3.2079,2.3743-10.1671,4.2049-12.7145.4851.73.1829,1.4109.0308,2.0853-.2984.1733-.4513.3724-.1175.6578q-.08.8622-.16,1.7245c-.299.1619-.49.3478-.1465.653q-.0966,1.3386-.1933,2.6773C82.2768,282.53,82.4235,283.004,82.5338,283.4721Z"></path><path class="a" d="M413.0377,263.7249a3.0079,3.0079,0,0,1-1.6083,2.3221c-6.5039,3.5915-13.0881,7.0419-19.3807,11.0022-.5178.3258-1.1331.4164-1.4195-.18a1.3328,1.3328,0,0,1,.6036-1.8866c2.6431-1.5626,5.2355-3.2109,7.8958-4.7427,3.6045-2.0757,7.25-4.0816,10.8881-6.099.6472-.3589,1.3423-.6335,2.02-.9358C412.68,262.9192,412.95,263.2358,413.0377,263.7249Z"></path><path class="a" d="M45.9533,258.8008c-.1527,2.256-1.4374,3.3377-2.787,4.3519a19.0736,19.0736,0,0,1-5.342,2.5821,59.57,59.57,0,0,0-10.933,4.66c-.1021.06-.2717.0076-.6016.0076a13.9168,13.9168,0,0,1,5.3577-5.4837c1.86-1.1273,3.9819-1.5059,5.9832-2.2248A37.7891,37.7891,0,0,0,45.9533,258.8008Z"></path><path class="a" d="M405.6692,279.1815c-.3467-.01-.7191.03-.8974-.3688a.9354.9354,0,0,1,.1807-.967,2.84,2.84,0,0,1,1.1588-.906c5.5285-2.6923,10.9913-5.5087,16.36-8.5064.798-.4455,1.9489-1.3108,2.5073-.3959.5735.9394-.7891,1.512-1.5264,1.96a137.8435,137.8435,0,0,1-15.5241,8.4756A5.9483,5.9483,0,0,1,405.6692,279.1815Z"></path><path class="a" d="M213.5146,287.784a11.6183,11.6183,0,0,1,3.3527-8.6009c.3695-.366.7241-.7348,1.2708-.33.4933.3649.3831.83.2268,1.3369a5.7767,5.7767,0,0,1-.8918,1.5307c-1.1683,1.71-1.59,3.5-.5221,5.4277a2.9415,2.9415,0,0,0,1.4387,1.4043c1.3861.6142,1.5788,1.5786.69,2.6543-.8163.9878-1.7509,1.8986-3.149,1.5049a3.2674,3.2674,0,0,1-2.3021-3.0043C213.5354,289.0234,213.5438,288.3256,213.5146,287.784Z"></path><path class="a" d="M202.8576,300.6964a25.6085,25.6085,0,0,0-.0678,7.8658c.103.8634.3666,1.25,1.3244,1.0145.5433-.1337,1.2546-.2906,1.6541.2822.4558.6532.1226,1.3338-.2164,1.948a3.64,3.64,0,0,1-3.8616,2.1476c-1.2875-.3176-2.3285-1.9641-2.4634-3.6874a12.3484,12.3484,0,0,1,2.9267-9.2148C202.3038,300.8723,202.4207,300.6222,202.8576,300.6964Z"></path><path class="a" d="M413.4757,309.3746a11.432,11.432,0,0,1,3.2533-6.6795c.48-.5135,1.18-.9806,1.84-.5652.79.4974.41,1.3047.1377,2.0033-.5882,1.509-1.4976,2.8977-1.6321,4.5767a1.9712,1.9712,0,0,0,1.1508,2.2893c.82.3874,1.8013.9716,1.4963,2.1053-.2878,1.07-1.36,1.2014-2.3059,1.2778C414.9387,314.5825,413.4905,312.9376,413.4757,309.3746Z"></path><path class="a" d="M388.0525,266.0051a4.706,4.706,0,0,1-.6266,2.4852.9841.9841,0,0,1-.4927.4843c-.3064.0763-.3846-.2415-.4376-.4763a60.1808,60.1808,0,0,0-2.4772-8.3535c-.3849-1.0044-.2246-2.6433.9782-2.9419,1.2862-.3192,1.5954,1.1972,1.866,2.2A26.2751,26.2751,0,0,1,388.0525,266.0051Z"></path><path class="a" d="M347.8447,312.94l.0018.6148a1.8719,1.8719,0,0,1-1.7673-.1369A3.3123,3.3123,0,0,1,347.8447,312.94Z"></path><path class="a" d="M354.0677,313.1243a2.6447,2.6447,0,0,1,2.2314-.1739A2.1871,2.1871,0,0,1,354.0677,313.1243Z"></path><path class="a" d="M82.5338,283.4721c-.11-.4681-.257-.9426.2305-1.3063A.8836.8836,0,0,1,82.5338,283.4721Z"></path><path class="a" d="M348.9354,313.476c.3684-.5506.8756-.3651,1.3689-.2556A1.04,1.04,0,0,1,348.9354,313.476Z"></path><path class="a" d="M83.264,277.111c-.3338-.2854-.1809-.4845.1175-.6578A.4913.4913,0,0,1,83.264,277.111Z"></path><path class="a" d="M82.9576,279.4885c-.3438-.3052-.1525-.4911.1465-.653A.4137.4137,0,0,1,82.9576,279.4885Z"></path><polyline class="a" points="222.78 160.019 139.203 105.806 139.217 113.079 218.292 163.201"></polyline><polyline class="a" points="152.766 60.632 282.968 143.532 282.968 175.531 211.07 221.402 139.206 175.205 139.204 130.539 211.07 175.909 239.335 157.359 139.217 93.316 139.217 60.632 152.766 60.632"></polyline><polyline class="a" points="211.088 175.901 239.335 157.359 211.088 139.308 211.088 97.77 282.968 143.532 282.968 175.531 211.088 221.391"></polyline><polygon class="a" points="211.012 60.156 282.982 60.12 282.971 105.159 211.012 60.156"></polygon><polygon class="a" points="156.188 52.149 283.08 124.482 283.072 119.189 168.328 52.149 282.965 52.149 282.965 46.019 139.219 46.019 139.219 52.149 156.188 52.149"></polygon><rect class="a" x="211.0141" y="46.0192" width="71.951" height="6.1299"></rect><polygon class="a" points="218.236 163.257 210.945 158.55 211.007 152.345 222.78 160.019 218.236 163.257"></polygon><polygon class="a" points="282.968 119.129 211.014 77.095 211.014 83.429 282.976 124.419 282.968 119.129"></polygon><path class="a" d="M226.51,231.9273l-7.5917,4.8425-.9314-1.46,2.9857-1.9045-3.9944-6.262a11.7192,11.7192,0,0,1-1.57,3.5153l-1.14-1.787a13.2209,13.2209,0,0,0,1.1259-1.6636,9.6513,9.6513,0,0,0,.4429-1.3249,4.85,4.85,0,0,0,.2218-1.5264l1.1915-.76,5.5235,8.6594,2.8042-1.7887Z"></path><path class="a" d="M226.36,229.4981l1.2231-1.383a2.1543,2.1543,0,0,0,2.329-.0344,2.2517,2.2517,0,0,0,1.0662-2.1417,7,7,0,0,0-1.2312-3.2925,3.2058,3.2058,0,0,1-.3837,2.0588,4.1265,4.1265,0,0,1-1.2043,1.1718,3.9,3.9,0,0,1-2.8867.61,3.5614,3.5614,0,0,1-2.4121-1.7065,3.7935,3.7935,0,0,1-.5524-3.005,4.1833,4.1833,0,0,1,1.9707-2.5907,4.43,4.43,0,0,1,3.7305-.6164,6.1912,6.1912,0,0,1,3.4019,2.8737,7.7266,7.7266,0,0,1,1.3992,4.565,4.1681,4.1681,0,0,1-2.0772,3.4408,4.0862,4.0862,0,0,1-2.43.7324A3.2814,3.2814,0,0,1,226.36,229.4981Zm1.1966-5.27a2.4289,2.4289,0,0,0,1.0522-1.3863,2.1688,2.1688,0,0,0-.3439-1.8452,2.0221,2.0221,0,0,0-1.2827-.8734,2.48,2.48,0,0,0-2.8077,1.791,2.1628,2.1628,0,0,0,.3162,1.6737,2.2478,2.2478,0,0,0,1.3086.9539A2.0675,2.0675,0,0,0,227.5569,224.2276Z"></path><path class="a" d="M235.0852,223.9328l1.2231-1.383a2.1542,2.1542,0,0,0,2.3287-.0342,2.2516,2.2516,0,0,0,1.0664-2.1419,7,7,0,0,0-1.2314-3.2923,3.2045,3.2045,0,0,1-.3834,2.0586,4.13,4.13,0,0,1-1.2046,1.172,3.8992,3.8992,0,0,1-2.8865.61,3.56,3.56,0,0,1-2.412-1.7065,3.7922,3.7922,0,0,1-.5525-3.005,4.1829,4.1829,0,0,1,1.9705-2.59,4.4312,4.4312,0,0,1,3.7308-.6166,6.1908,6.1908,0,0,1,3.4019,2.8737,7.7291,7.7291,0,0,1,1.3992,4.565,4.1686,4.1686,0,0,1-2.0773,3.4408,4.0863,4.0863,0,0,1-2.43.7325A3.28,3.28,0,0,1,235.0852,223.9328Zm1.1963-5.27a2.43,2.43,0,0,0,1.0524-1.3865,2.1682,2.1682,0,0,0-.3439-1.8451,2.0226,2.0226,0,0,0-1.2827-.8734,2.48,2.48,0,0,0-2.8079,1.7911,2.1643,2.1643,0,0,0,.3164,1.6735,2.2484,2.2484,0,0,0,1.3086.9539A2.0674,2.0674,0,0,0,236.2815,218.6625Z"></path><path class="a" d="M244.4122,214.3452l-.899-1.41.908-.5792a2.8416,2.8416,0,0,0,1.1269-1.23,1.4409,1.4409,0,0,0-.1456-1.43,1.49,1.49,0,0,0-1.1377-.7663,2.24,2.24,0,0,0-1.4149.4015,2.35,2.35,0,0,0-1.08,2.7128l-1.8154.7592a3.736,3.736,0,0,1,.0935-2.6656,4.7585,4.7585,0,0,1,1.95-2.2555,4.6892,4.6892,0,0,1,2.8546-.8039,2.7007,2.7007,0,0,1,2.2265,1.3036,2.7559,2.7559,0,0,1,.4486,1.8806,2.1854,2.1854,0,0,1-.8737,1.5383,2.9973,2.9973,0,0,1,2.08-.1922,2.7308,2.7308,0,0,1,1.6069,1.2132,3.06,3.06,0,0,1,.3135,2.759,5.0334,5.0334,0,0,1-2.2091,2.5691,4.8693,4.8693,0,0,1-3.1164.8586,4.0765,4.0765,0,0,1-2.4713-1.0146l1.4285-1.4937a2.76,2.76,0,0,0,4.371-1.0864,1.6146,1.6146,0,0,0-.1541-1.42,1.8676,1.8676,0,0,0-1.1773-.828,2.1806,2.1806,0,0,0-1.6992.4043Z"></path><path class="a" d="M253.57,208.4013l.8664,1.3584-3.647,2.3263-.8665-1.3584Z"></path><path class="a" d="M264.99,207.382l-7.5914,4.8424-.9315-1.46,2.9858-1.9045-3.9944-6.2621a11.7237,11.7237,0,0,1-1.57,3.5156l-1.14-1.7871a13.19,13.19,0,0,0,1.1261-1.6637,9.6064,9.6064,0,0,0,.4427-1.3247,4.8528,4.8528,0,0,0,.2221-1.5266l1.1914-.76,5.5236,8.6593,2.8039-1.7885Z"></path><path class="a" d="M271.8478,203.0077,270.01,204.18l-1.4365-2.252-4.4024,2.8081-.8341-1.3078.218-9.368,1.8379-1.1723,4.0453,6.3419,1.4893-.95.9732,1.5257-1.4893.95Zm-6.9712-7.1638.0431,6.2682,2.68-1.71-1.7469-2.7387a7.5733,7.5733,0,0,1-.4569-.8124Z"></path><path class="a" d="M282.44,196.2516l-7.5914,4.8423-.9314-1.46,2.9857-1.9045-3.9944-6.2621a11.7167,11.7167,0,0,1-1.57,3.5155l-1.14-1.7871a13.2077,13.2077,0,0,0,1.1261-1.6636,9.6307,9.6307,0,0,0,.4426-1.3248,4.85,4.85,0,0,0,.2221-1.5266l1.1915-.76,5.5235,8.6594,2.804-1.7885Z"></path><path class="a" d="M289.2972,191.8773l-1.8379,1.1724-1.4365-2.252-4.4023,2.8081-.8342-1.3078.218-9.368,1.8379-1.1723,4.0453,6.3419,1.4893-.95.9732,1.5258-1.4893.95Zm-6.9711-7.1639.043,6.2683,2.68-1.71-1.7469-2.7387a7.5636,7.5636,0,0,1-.4568-.8124Z"></path><polygon class="a" points="282.973 1.342 260.066 1.342 260.066 19.344 254.619 19.343 254.619 11.666 240.083 11.666 240.083 19.343 230.451 19.342 230.451 11.666 215.914 11.666 215.914 19.34 206.282 19.34 206.282 11.666 191.745 11.666 191.745 19.339 182.114 19.339 182.114 11.666 167.577 11.666 167.577 19.338 162.131 19.338 162.131 1.342 139.223 1.342 139.223 19.336 139.223 24.249 139.223 37.556 282.968 37.556 282.968 24.249 282.973 24.249 282.973 1.342"></polygon><polygon class="a" points="260.066 1.349 260.066 19.351 254.619 19.35 254.619 11.673 240.083 11.673 240.083 19.35 230.451 19.348 230.451 11.673 215.914 11.673 215.914 19.347 211.065 19.347 211.065 37.563 282.968 37.563 282.968 24.256 282.973 24.256 282.973 1.349 260.066 1.349"></polygon></svg>